<?xml version="1.0" standalone="no"?>
<!DOCTYPE svg PUBLIC "-//W3C//DTD SVG 20010904//EN"
 "http://www.w3.org/TR/2001/REC-SVG-20010904/DTD/svg10.dtd">
<svg version="1.0" xmlns="http://www.w3.org/2000/svg"
 width="700.000000pt" height="700.000000pt" viewBox="0 0 700.000000 700.000000"
 preserveAspectRatio="xMidYMid meet">
<metadata>
Created by potrace 1.11, written by Peter Selinger 2001-2013
</metadata>
<g transform="translate(0.000000,700.000000) scale(0.100000,-0.100000)"
fill="#000000" stroke="none">
<path d="M4430 5634 c-63 -13 -128 -25 -145 -28 -16 -3 -61 -12 -100 -20 -38
-8 -90 -17 -115 -21 -24 -4 -47 -8 -50 -10 -3 -2 -26 -6 -50 -10 -25 -4 -99
-17 -165 -30 -66 -13 -133 -26 -150 -29 -16 -3 -88 -17 -160 -31 -71 -14 -141
-27 -155 -30 -14 -2 -70 -14 -125 -25 -55 -11 -113 -23 -130 -26 -51 -8 -79
-14 -105 -19 -14 -3 -50 -9 -80 -15 -30 -6 -66 -12 -80 -15 -24 -5 -77 -14
-110 -20 -8 -2 -89 -17 -180 -35 -91 -17 -176 -34 -190 -36 -14 -2 -45 -9 -70
-14 -25 -5 -94 -18 -155 -30 -60 -11 -121 -22 -135 -25 -14 -3 -40 -8 -58 -11
-33 -6 -34 -8 -29 -48 3 -22 10 -66 16 -96 6 -30 14 -68 17 -85 3 -16 16 -86
29 -155 13 -69 26 -136 29 -150 3 -14 16 -83 30 -155 40 -207 154 -805 187
-980 16 -88 34 -180 39 -205 5 -25 12 -58 14 -73 3 -15 17 -89 31 -165 15 -75
29 -146 31 -157 2 -11 6 -32 9 -46 l6 -26 1072 2 c954 1 1080 3 1142 18 57 13
189 39 370 73 199 37 195 35 195 63 0 14 -5 44 -10 66 -5 22 -11 51 -14 65 -2
14 -9 48 -15 75 -5 28 -12 70 -16 95 -4 24 -8 47 -10 50 -3 4 -30 148 -51 270
-3 14 -7 32 -9 40 -3 8 -7 32 -11 54 -3 21 -8 48 -10 60 -7 32 -23 116 -29
156 -3 19 -10 51 -15 70 -5 19 -11 51 -14 70 -3 19 -19 107 -36 195 -17 88
-40 206 -51 263 -10 56 -28 150 -40 210 -44 229 -67 353 -73 387 -3 17 -17 89
-31 160 -14 72 -27 141 -30 155 -3 14 -14 74 -25 134 -11 61 -20 111 -20 113
0 8 -65 -1 -170 -23z m-1397 -1117 c49 -25 88 -67 109 -115 18 -43 21 -45 32
-27 6 11 34 43 62 70 40 39 65 55 118 71 151 47 275 -1 323 -125 18 -47 21
-139 14 -453 -4 -129 8 -171 51 -189 26 -11 35 -10 64 6 40 21 50 49 33 90 -8
21 -13 130 -15 348 -2 290 -1 317 14 318 10 1 51 1 92 0 100 -2 166 -33 201
-93 23 -42 24 -48 26 -293 3 -308 7 -350 38 -381 51 -51 118 -13 131 74 4 26
8 192 8 370 0 177 3 322 6 323 14 3 316 4 325 2 7 -2 10 -171 9 -506 -1 -450
-3 -507 -19 -552 -39 -112 -120 -183 -262 -231 -62 -21 -94 -25 -182 -25 -221
0 -354 73 -346 189 1 20 3 45 4 54 2 27 69 97 115 120 23 12 70 29 105 38 72
18 92 39 39 41 -18 1 -36 1 -40 0 -21 -2 -119 35 -151 59 l-38 28 -42 -42
c-66 -65 -126 -89 -222 -89 -83 1 -110 4 -121 16 -4 4 -16 7 -26 7 -10 0 -41
22 -68 49 -75 76 -83 113 -76 379 6 236 0 277 -43 298 -38 19 -76 0 -100 -50
-28 -56 -29 -67 -30 -394 l-1 -283 -172 3 -173 3 -2 315 c-2 341 -8 384 -52
407 -53 26 -106 -36 -120 -141 -4 -28 -7 -171 -6 -319 l0 -267 -25 -1 c-32 -1
-291 -1 -306 0 -13 1 -16 883 -3 892 10 6 156 2 216 -6 51 -7 103 -52 103 -88
0 -36 15 -41 35 -11 35 53 97 97 168 119 52 16 162 12 200 -8z"/>
<path d="M4260 3613 c-66 -42 -95 -83 -108 -150 -9 -50 -8 -60 3 -120 8 -43
49 -74 92 -71 67 4 85 51 88 236 2 102 0 142 -8 141 -7 0 -37 -16 -67 -36z"/>
<path d="M794 2883 c-1 -45 3 -84 7 -84 5 -1 12 -2 17 -3 4 -1 25 -5 47 -9 22
-5 47 -10 56 -13 14 -4 16 -55 16 -498 l0 -494 -46 -9 -46 -9 3 -39 c1 -22 7
-61 13 -87 l11 -48 244 0 245 0 -3 83 -3 82 -72 14 -73 15 0 188 0 188 160 0
c88 0 160 3 161 8 0 4 3 30 5 57 3 28 11 71 19 98 8 26 11 47 7 48 -4 0 -83 1
-177 2 l-170 2 0 188 c0 103 2 187 5 188 38 7 433 2 438 -6 7 -10 9 -29 11
-97 1 -52 25 -50 104 6 34 24 72 47 85 50 12 4 22 10 23 14 3 21 5 229 2 238
-3 8 -160 11 -546 11 l-543 0 0 -84z"/>
<path d="M2015 2615 c-176 -41 -302 -183 -340 -379 -16 -83 -13 -239 5 -311
48 -181 176 -310 342 -345 63 -12 190 -12 253 2 158 34 282 165 330 349 21 76
23 252 5 319 -7 25 -13 50 -14 56 -1 6 -16 41 -34 77 -57 114 -152 194 -272
227 -61 17 -213 20 -275 5z m211 -218 c71 -37 112 -127 121 -260 9 -152 -32
-284 -103 -327 -40 -25 -116 -34 -166 -19 -90 25 -140 137 -140 314 0 174 56
283 157 305 43 10 98 4 131 -13z"/>
<path d="M3208 2620 c-45 -14 -87 -49 -123 -103 -34 -51 -35 -51 -36 -22 -1
58 -7 106 -13 113 -4 3 -94 6 -201 7 l-193 0 -4 -50 c-2 -27 -1 -66 2 -85 5
-33 8 -35 62 -46 32 -6 60 -9 62 -6 16 16 22 -76 21 -340 -1 -164 -4 -300 -7
-303 -3 -3 -32 -11 -65 -17 l-59 -11 -2 -83 -2 -84 270 0 270 0 0 84 0 84 -65
12 -65 12 0 254 0 253 35 35 c38 38 65 46 169 49 69 2 69 2 73 32 2 17 8 55
12 86 4 31 7 74 7 95 l-1 39 -60 2 c-33 1 -72 -2 -87 -7z"/>
<path d="M5171 2608 c-34 -13 -74 -39 -108 -72 -29 -29 -54 -51 -54 -49 -3 7
-7 46 -8 83 l-1 40 -204 0 -204 0 1 -82 2 -83 73 -14 72 -13 -2 -322 c-3 -313
-4 -321 -23 -323 -11 -1 -39 -5 -62 -9 l-41 -6 -4 -57 c-2 -31 -1 -70 2 -86
l5 -30 258 0 c167 0 257 3 258 10 3 44 0 145 -5 153 -3 5 -23 13 -43 16 -21 4
-45 9 -53 11 -13 4 -15 44 -15 284 l0 280 32 29 c40 35 84 49 144 47 54 -3 93
-26 117 -69 15 -27 17 -69 20 -298 l3 -266 -55 -13 -56 -12 0 -84 0 -83 249 0
249 0 -1 83 -2 82 -49 12 c-26 7 -51 15 -54 18 -3 3 -6 125 -6 270 0 301 0
299 85 343 52 26 130 25 172 -3 53 -34 61 -84 62 -360 l0 -250 -53 -11 c-30
-7 -55 -14 -57 -16 -4 -4 -7 -62 -6 -121 l1 -47 262 2 263 3 1 78 c0 43 -4 80
-8 83 -5 3 -21 7 -36 10 -15 2 -41 6 -59 9 l-31 6 0 234 c0 129 -4 260 -8 292
-18 147 -81 250 -182 296 -37 17 -66 22 -137 22 -78 0 -97 -4 -147 -28 -36
-18 -76 -49 -108 -85 -27 -31 -50 -51 -50 -45 0 29 -73 103 -129 131 -52 26
-72 30 -138 30 -54 0 -95 -6 -132 -20z"/>
<path d="M3435 2612 c-19 -3 -21 -10 -21 -82 l1 -80 30 -9 c16 -5 42 -12 56
-15 l26 -6 1 -247 c0 -334 17 -414 102 -507 62 -67 124 -90 240 -90 84 0 102
3 153 28 33 16 71 44 89 67 36 45 43 47 46 17 1 -13 4 -32 6 -43 3 -11 5 -28
5 -37 1 -17 17 -18 186 -18 l185 0 0 84 0 83 -59 12 c-33 6 -61 17 -63 24 -2
7 -3 193 -3 415 l1 402 -198 0 -198 0 0 -84 0 -84 43 -8 c23 -4 45 -9 50 -10
4 -1 12 -2 17 -3 6 -1 10 -102 10 -280 l0 -279 -37 -30 c-44 -34 -103 -50
-164 -46 -53 4 -88 28 -113 80 -18 36 -20 64 -21 393 l-1 355 -175 0 c-96 1
-183 0 -194 -2z"/>
</g>
</svg>
